<?xml version="1.0" standalone="no"?><!DOCTYPE svg PUBLIC "-//W3C//DTD SVG 1.1//EN" "http://www.w3.org/Graphics/SVG/1.1/DTD/svg11.dtd"><svg t="1618561048435" class="icon" viewBox="0 0 1024 1024" version="1.1" xmlns="http://www.w3.org/2000/svg" p-id="12579" xmlns:xlink="http://www.w3.org/1999/xlink" width="48" height="48"><defs><style type="text/css"></style></defs><path d="M819.2 527.36V204.8H204.8v405.6064l55.5008-56.25856a60.84608 60.84608 0 0 1 90.07104 3.52256l34.75456 41.10336a60.86656 60.86656 0 0 0 91.79136 1.72032l155.5456-170.84416a60.84608 60.84608 0 0 1 88.59648-1.80224L819.2 527.36zM184.32 122.88h655.36a61.44 61.44 0 0 1 61.44 61.44v471.04c0 135.72096-110.03904 245.76-245.76 245.76H368.64c-135.72096 0-245.76-110.03904-245.76-245.76V184.32a61.44 61.44 0 0 1 61.44-61.44z m174.08 307.2a71.68 71.68 0 1 1 0-143.36 71.68 71.68 0 0 1 0 143.36z" p-id="12580"></path></svg>